# Blender v2.80 (sub 75) OBJ File: 'Aufzug.blend'
# www.blender.org
mtllib Aufzug.mtl
o Cube.008_Cube.012
v -1.000000 -1.100000 -0.460000
v -1.000000 0.900000 -0.460000
v -1.000000 -1.100000 -0.560000
v -1.000000 0.900000 -0.560000
v -0.700000 -1.100000 -0.460000
v -0.700000 0.900000 -0.460000
v -0.700000 -1.100000 -0.560000
v -0.700000 0.900000 -0.560000
vt 0.375000 0.000000
vt 0.625000 0.000000
vt 0.625000 0.250000
vt 0.375000 0.250000
vt 0.625000 0.500000
vt 0.375000 0.500000
vt 0.625000 0.750000
vt 0.375000 0.750000
vt 0.625000 1.000000
vt 0.375000 1.000000
vt 0.125000 0.500000
vt 0.125000 0.750000
vt 0.875000 0.500000
vt 0.875000 0.750000
vn -1.0000 0.0000 0.0000
vn 0.0000 0.0000 -1.0000
vn 1.0000 0.0000 0.0000
vn 0.0000 0.0000 1.0000
vn 0.0000 -1.0000 0.0000
vn 0.0000 1.0000 0.0000
usemtl None
s off
f 1/1/1 2/2/1 4/3/1 3/4/1
f 3/4/2 4/3/2 8/5/2 7/6/2
f 7/6/3 8/5/3 6/7/3 5/8/3
f 5/8/4 6/7/4 2/9/4 1/10/4
f 3/11/5 7/6/5 5/8/5 1/12/5
f 8/5/6 4/13/6 2/14/6 6/7/6
o Cube.010_Cube.013
v -0.900000 -1.100000 0.560000
v -0.900000 0.900000 0.560000
v -0.900000 -1.100000 0.460000
v -0.900000 0.900000 0.460000
v -0.700000 -1.100000 0.560000
v -0.700000 0.900000 0.560000
v -0.700000 -1.100000 0.460000
v -0.700000 0.900000 0.460000
vt 0.375000 0.000000
vt 0.625000 0.000000
vt 0.625000 0.250000
vt 0.375000 0.250000
vt 0.625000 0.500000
vt 0.375000 0.500000
vt 0.625000 0.750000
vt 0.375000 0.750000
vt 0.625000 1.000000
vt 0.375000 1.000000
vt 0.125000 0.500000
vt 0.125000 0.750000
vt 0.875000 0.500000
vt 0.875000 0.750000
vn -1.0000 0.0000 0.0000
vn 0.0000 0.0000 -1.0000
vn 1.0000 0.0000 0.0000
vn 0.0000 0.0000 1.0000
vn 0.0000 -1.0000 0.0000
vn 0.0000 1.0000 0.0000
usemtl None
s off
f 9/15/7 10/16/7 12/17/7 11/18/7
f 11/18/8 12/17/8 16/19/8 15/20/8
f 15/20/9 16/19/9 14/21/9 13/22/9
f 13/22/10 14/21/10 10/23/10 9/24/10
f 11/25/11 15/20/11 13/22/11 9/26/11
f 16/19/12 12/27/12 10/28/12 14/21/12
o Cube.011_Cube.014
v -1.000000 0.900000 0.560000
v -1.000000 1.100000 0.560000
v -1.000000 0.900000 -0.560000
v -1.000000 1.100000 -0.560000
v -0.700000 0.900000 0.560000
v -0.700000 1.100000 0.560000
v -0.700000 0.900000 -0.560000
v -0.700000 1.100000 -0.560000
vt 0.375000 0.000000
vt 0.625000 0.000000
vt 0.625000 0.250000
vt 0.375000 0.250000
vt 0.625000 0.500000
vt 0.375000 0.500000
vt 0.625000 0.750000
vt 0.375000 0.750000
vt 0.625000 1.000000
vt 0.375000 1.000000
vt 0.125000 0.500000
vt 0.125000 0.750000
vt 0.875000 0.500000
vt 0.875000 0.750000
vn -1.0000 0.0000 0.0000
vn 0.0000 0.0000 -1.0000
vn 1.0000 0.0000 0.0000
vn 0.0000 0.0000 1.0000
vn 0.0000 -1.0000 0.0000
vn 0.0000 1.0000 0.0000
usemtl None
s off
f 17/29/13 18/30/13 20/31/13 19/32/13
f 19/32/14 20/31/14 24/33/14 23/34/14
f 23/34/15 24/33/15 22/35/15 21/36/15
f 21/36/16 22/35/16 18/37/16 17/38/16
f 19/39/17 23/34/17 21/36/17 17/40/17
f 24/33/18 20/41/18 18/42/18 22/35/18
o Cube
v 0.700000 1.100000 -0.560000
v 0.700000 -1.100000 -0.560000
v 0.700000 1.100000 -0.540000
v 0.700000 -1.100000 -0.540000
v -0.700000 1.100000 -0.560000
v -0.700000 -1.100000 -0.560000
v -0.700000 1.100000 -0.540000
v -0.700000 -1.100000 -0.540000
vt 0.375000 0.000000
vt 0.625000 0.000000
vt 0.625000 0.250000
vt 0.375000 0.250000
vt 0.375000 0.250000
vt 0.625000 0.250000
vt 0.625000 0.500000
vt 0.375000 0.500000
vt 0.625000 0.750000
vt 0.375000 0.750000
vt 0.625000 0.750000
vt 0.625000 1.000000
vt 0.375000 1.000000
vt 0.125000 0.500000
vt 0.375000 0.500000
vt 0.375000 0.750000
vt 0.125000 0.750000
vt 0.625000 0.500000
vt 0.875000 0.500000
vt 0.875000 0.750000
vn 0.0000 1.0000 0.0000
vn 0.0000 0.0000 1.0000
vn -1.0000 0.0000 0.0000
vn 0.0000 -1.0000 0.0000
vn 1.0000 0.0000 0.0000
vn 0.0000 0.0000 -1.0000
usemtl Material
s off
f 25/43/19 29/44/19 31/45/19 27/46/19
f 28/47/20 27/48/20 31/49/20 32/50/20
f 32/50/21 31/49/21 29/51/21 30/52/21
f 30/52/22 26/53/22 28/54/22 32/55/22
f 26/56/23 25/57/23 27/58/23 28/59/23
f 30/60/24 29/61/24 25/62/24 26/53/24
o Cube.001
v 0.700000 1.100000 0.540000
v 0.700000 -1.100000 0.540000
v 0.700000 1.100000 0.560000
v 0.700000 -1.100000 0.560000
v -0.700000 1.100000 0.540000
v -0.700000 -1.100000 0.540000
v -0.700000 1.100000 0.560000
v -0.700000 -1.100000 0.560000
vt 0.375000 0.000000
vt 0.625000 0.000000
vt 0.625000 0.250000
vt 0.375000 0.250000
vt 0.375000 0.250000
vt 0.625000 0.250000
vt 0.625000 0.500000
vt 0.375000 0.500000
vt 0.625000 0.750000
vt 0.375000 0.750000
vt 0.625000 0.750000
vt 0.625000 1.000000
vt 0.375000 1.000000
vt 0.125000 0.500000
vt 0.375000 0.500000
vt 0.375000 0.750000
vt 0.125000 0.750000
vt 0.625000 0.500000
vt 0.875000 0.500000
vt 0.875000 0.750000
vn 0.0000 1.0000 0.0000
vn 0.0000 0.0000 1.0000
vn -1.0000 0.0000 0.0000
vn 0.0000 -1.0000 0.0000
vn 1.0000 0.0000 0.0000
vn 0.0000 0.0000 -1.0000
usemtl Material.001
s off
f 33/63/25 37/64/25 39/65/25 35/66/25
f 36/67/26 35/68/26 39/69/26 40/70/26
f 40/70/27 39/69/27 37/71/27 38/72/27
f 38/72/28 34/73/28 36/74/28 40/75/28
f 34/76/29 33/77/29 35/78/29 36/79/29
f 38/80/30 37/81/30 33/82/30 34/73/30
o Cube.002
v 0.690000 1.100000 -0.540000
v 0.690000 -1.100000 -0.540000
v 0.710000 1.100000 -0.540000
v 0.710000 -1.100000 -0.540000
v 0.690000 1.100000 0.540000
v 0.690000 -1.100000 0.540000
v 0.710000 1.100000 0.540000
v 0.710000 -1.100000 0.540000
vt 0.375000 0.000000
vt 0.625000 0.000000
vt 0.625000 0.250000
vt 0.375000 0.250000
vt 0.375000 0.250000
vt 0.625000 0.250000
vt 0.625000 0.500000
vt 0.375000 0.500000
vt 0.625000 0.750000
vt 0.375000 0.750000
vt 0.625000 0.750000
vt 0.625000 1.000000
vt 0.375000 1.000000
vt 0.125000 0.500000
vt 0.375000 0.500000
vt 0.375000 0.750000
vt 0.125000 0.750000
vt 0.625000 0.500000
vt 0.875000 0.500000
vt 0.875000 0.750000
vn 0.0000 1.0000 0.0000
vn 1.0000 0.0000 -0.0000
vn 0.0000 0.0000 1.0000
vn 0.0000 -1.0000 0.0000
vn 0.0000 0.0000 -1.0000
vn -1.0000 0.0000 0.0000
usemtl Material.001
s off
f 41/83/31 45/84/31 47/85/31 43/86/31
f 44/87/32 43/88/32 47/89/32 48/90/32
f 48/90/33 47/89/33 45/91/33 46/92/33
f 46/92/34 42/93/34 44/94/34 48/95/34
f 42/96/35 41/97/35 43/98/35 44/99/35
f 46/100/36 45/101/36 41/102/36 42/93/36
o Cube.003
v -1.000000 -1.101000 0.550000
v -1.000000 -1.100000 0.550000
v -1.000000 -1.101000 -0.550000
v -1.000000 -1.100000 -0.550000
v 0.700000 -1.101000 0.550000
v 0.700000 -1.100000 0.550000
v 0.700000 -1.101000 -0.550000
v 0.700000 -1.100000 -0.550000
vt 0.375000 0.000000
vt 0.625000 0.000000
vt 0.625000 0.250000
vt 0.375000 0.250000
vt 0.625000 0.500000
vt 0.375000 0.500000
vt 0.625000 0.750000
vt 0.375000 0.750000
vt 0.625000 1.000000
vt 0.375000 1.000000
vt 0.125000 0.500000
vt 0.125000 0.750000
vt 0.875000 0.500000
vt 0.875000 0.750000
vn -1.0000 0.0000 0.0000
vn 0.0000 0.0000 -1.0000
vn 1.0000 0.0000 0.0000
vn 0.0000 0.0000 1.0000
vn 0.0000 -1.0000 0.0000
vn 0.0000 1.0000 0.0000
usemtl None
s off
f 49/103/37 50/104/37 52/105/37 51/106/37
f 51/106/38 52/105/38 56/107/38 55/108/38
f 55/108/39 56/107/39 54/109/39 53/110/39
f 53/110/40 54/109/40 50/111/40 49/112/40
f 51/113/41 55/108/41 53/110/41 49/114/41
f 56/107/42 52/115/42 50/116/42 54/109/42
o Cube.004
v 0.670000 1.100000 0.520000
v 0.670000 -0.900000 0.520000
v 0.670000 1.100000 0.540000
v 0.670000 -0.900000 0.540000
v -0.700000 1.100000 0.520000
v -0.700000 -0.900000 0.520000
v -0.700000 1.100000 0.540000
v -0.700000 -0.900000 0.540000
vt 0.375000 0.000000
vt 0.625000 0.000000
vt 0.625000 0.250000
vt 0.375000 0.250000
vt 0.375000 0.250000
vt 0.625000 0.250000
vt 0.625000 0.500000
vt 0.375000 0.500000
vt 0.625000 0.750000
vt 0.375000 0.750000
vt 0.625000 0.750000
vt 0.625000 1.000000
vt 0.375000 1.000000
vt 0.125000 0.500000
vt 0.375000 0.500000
vt 0.375000 0.750000
vt 0.125000 0.750000
vt 0.625000 0.500000
vt 0.875000 0.500000
vt 0.875000 0.750000
vn 0.0000 1.0000 0.0000
vn 0.0000 0.0000 1.0000
vn -1.0000 0.0000 0.0000
vn 0.0000 -1.0000 0.0000
vn 1.0000 0.0000 0.0000
vn 0.0000 0.0000 -1.0000
usemtl Material.001
s off
f 57/117/43 61/118/43 63/119/43 59/120/43
f 60/121/44 59/122/44 63/123/44 64/124/44
f 64/124/45 63/123/45 61/125/45 62/126/45
f 62/126/46 58/127/46 60/128/46 64/129/46
f 58/130/47 57/131/47 59/132/47 60/133/47
f 62/134/48 61/135/48 57/136/48 58/127/48
o Cube.005
v 0.670000 1.100000 -0.540000
v 0.670000 -0.900000 -0.540000
v 0.670000 1.100000 -0.520000
v 0.670000 -0.900000 -0.520000
v -0.700000 1.100000 -0.540000
v -0.700000 -0.900000 -0.540000
v -0.700000 1.100000 -0.520000
v -0.700000 -0.900000 -0.520000
vt 0.375000 0.000000
vt 0.625000 0.000000
vt 0.625000 0.250000
vt 0.375000 0.250000
vt 0.375000 0.250000
vt 0.625000 0.250000
vt 0.625000 0.500000
vt 0.375000 0.500000
vt 0.625000 0.750000
vt 0.375000 0.750000
vt 0.625000 0.750000
vt 0.625000 1.000000
vt 0.375000 1.000000
vt 0.125000 0.500000
vt 0.375000 0.500000
vt 0.375000 0.750000
vt 0.125000 0.750000
vt 0.625000 0.500000
vt 0.875000 0.500000
vt 0.875000 0.750000
vn 0.0000 1.0000 0.0000
vn 0.0000 0.0000 1.0000
vn -1.0000 0.0000 0.0000
vn 0.0000 -1.0000 0.0000
vn 1.0000 0.0000 0.0000
vn 0.0000 0.0000 -1.0000
usemtl Material.002
s off
f 65/137/49 69/138/49 71/139/49 67/140/49
f 68/141/50 67/142/50 71/143/50 72/144/50
f 72/144/51 71/143/51 69/145/51 70/146/51
f 70/146/52 66/147/52 68/148/52 72/149/52
f 66/150/53 65/151/53 67/152/53 68/153/53
f 70/154/54 69/155/54 65/156/54 66/147/54
o Cube.006
v 0.670000 1.100000 -0.540000
v 0.670000 -0.900000 -0.540000
v 0.690000 1.100000 -0.540000
v 0.690000 -0.900000 -0.540000
v 0.670000 1.100000 0.540000
v 0.670000 -0.900000 0.540000
v 0.690000 1.100000 0.540000
v 0.690000 -0.900000 0.540000
vt 0.375000 0.000000
vt 0.625000 0.000000
vt 0.625000 0.250000
vt 0.375000 0.250000
vt 0.375000 0.250000
vt 0.625000 0.250000
vt 0.625000 0.500000
vt 0.375000 0.500000
vt 0.625000 0.750000
vt 0.375000 0.750000
vt 0.625000 0.750000
vt 0.625000 1.000000
vt 0.375000 1.000000
vt 0.125000 0.500000
vt 0.375000 0.500000
vt 0.375000 0.750000
vt 0.125000 0.750000
vt 0.625000 0.500000
vt 0.875000 0.500000
vt 0.875000 0.750000
vn 0.0000 1.0000 0.0000
vn 1.0000 0.0000 -0.0000
vn 0.0000 0.0000 1.0000
vn 0.0000 -1.0000 -0.0000
vn 0.0000 0.0000 -1.0000
vn -1.0000 0.0000 0.0000
usemtl Material.003
s off
f 73/157/55 77/158/55 79/159/55 75/160/55
f 76/161/56 75/162/56 79/163/56 80/164/56
f 80/164/57 79/163/57 77/165/57 78/166/57
f 78/166/58 74/167/58 76/168/58 80/169/58
f 74/170/59 73/171/59 75/172/59 76/173/59
f 78/174/60 77/175/60 73/176/60 74/167/60
o Cube.007
v -0.100000 1.100000 0.510000
v -0.100000 -0.900000 0.510000
v -0.100000 1.100000 0.520000
v -0.100000 -0.900000 0.520000
v -0.500000 1.100000 0.510000
v -0.500000 -0.900000 0.510000
v -0.500000 1.100000 0.520000
v -0.500000 -0.900000 0.520000
vt 0.375000 0.000000
vt 0.625000 0.000000
vt 0.625000 0.250000
vt 0.375000 0.250000
vt 0.375000 0.250000
vt 0.625000 0.250000
vt 0.625000 0.500000
vt 0.375000 0.500000
vt 0.625000 0.750000
vt 0.375000 0.750000
vt 0.625000 0.750000
vt 0.625000 1.000000
vt 0.375000 1.000000
vt 0.125000 0.500000
vt 0.375000 0.500000
vt 0.375000 0.750000
vt 0.125000 0.750000
vt 0.625000 0.500000
vt 0.875000 0.500000
vt 0.875000 0.750000
vn 0.0000 1.0000 0.0000
vn 0.0000 0.0000 1.0000
vn -1.0000 0.0000 0.0000
vn 0.0000 -1.0000 0.0000
vn 1.0000 0.0000 0.0000
vn 0.0000 0.0000 -1.0000
usemtl Material.004
s off
f 81/177/61 85/178/61 87/179/61 83/180/61
f 84/181/62 83/182/62 87/183/62 88/184/62
f 88/184/63 87/183/63 85/185/63 86/186/63
f 86/186/64 82/187/64 84/188/64 88/189/64
f 82/190/65 81/191/65 83/192/65 84/193/65
f 86/194/66 85/195/66 81/196/66 82/187/66
o Cube.009
v -0.700000 1.100000 0.550000
v -0.700000 1.101000 0.550000
v -0.700000 1.100000 -0.550000
v -0.700000 1.101000 -0.550000
v 0.700000 1.100000 0.550000
v 0.700000 1.101000 0.550000
v 0.700000 1.100000 -0.550000
v 0.700000 1.101000 -0.550000
vt 0.375000 0.000000
vt 0.625000 0.000000
vt 0.625000 0.250000
vt 0.375000 0.250000
vt 0.625000 0.500000
vt 0.375000 0.500000
vt 0.625000 0.750000
vt 0.375000 0.750000
vt 0.625000 1.000000
vt 0.375000 1.000000
vt 0.125000 0.500000
vt 0.125000 0.750000
vt 0.875000 0.500000
vt 0.875000 0.750000
vn -1.0000 0.0000 0.0000
vn 0.0000 0.0000 -1.0000
vn 1.0000 0.0000 0.0000
vn 0.0000 0.0000 1.0000
vn 0.0000 -1.0000 0.0000
vn 0.0000 1.0000 0.0000
usemtl None
s off
f 89/197/67 90/198/67 92/199/67 91/200/67
f 91/200/68 92/199/68 96/201/68 95/202/68
f 95/202/69 96/201/69 94/203/69 93/204/69
f 93/204/70 94/203/70 90/205/70 89/206/70
f 91/207/71 95/202/71 93/204/71 89/208/71
f 96/201/72 92/209/72 90/210/72 94/203/72
